<svg width="942" height="320" viewBox="0 0 942 320" fill="none" xmlns="http://www.w3.org/2000/svg">
<path d="M570.776 292.72C566.336 292.72 562.196 292.03 558.356 290.65C554.576 289.27 551.396 287.08 548.816 284.08C546.296 281.08 544.706 277.21 544.046 272.47H557.186C557.726 274.51 558.716 276.16 560.156 277.42C561.596 278.62 563.306 279.49 565.286 280.03C567.326 280.57 569.456 280.84 571.676 280.84C573.356 280.84 575.006 280.63 576.626 280.21C578.246 279.79 579.566 279.07 580.586 278.05C581.666 277.03 582.206 275.65 582.206 273.91C582.206 272.59 581.906 271.51 581.306 270.67C580.766 269.83 579.956 269.17 578.876 268.69C577.856 268.15 576.596 267.67 575.096 267.25C573.836 266.89 572.516 266.59 571.136 266.35C569.816 266.11 568.496 265.81 567.176 265.45C565.916 265.09 564.686 264.67 563.486 264.19C561.206 263.59 559.016 262.87 556.916 262.03C554.816 261.13 552.956 260.02 551.336 258.7C549.716 257.32 548.426 255.61 547.466 253.57C546.566 251.53 546.116 249.07 546.116 246.19C546.116 243.07 546.626 240.43 547.646 238.27C548.726 236.11 550.136 234.34 551.876 232.96C553.676 231.52 555.656 230.41 557.816 229.63C560.036 228.85 562.256 228.31 564.476 228.01C566.696 227.71 568.796 227.56 570.776 227.56C574.916 227.56 578.636 228.28 581.936 229.72C585.236 231.16 587.936 233.32 590.036 236.2C592.136 239.08 593.336 242.71 593.636 247.09H581.126C580.886 245.29 580.226 243.82 579.146 242.68C578.066 241.54 576.686 240.7 575.006 240.16C573.386 239.62 571.556 239.35 569.516 239.35C568.196 239.35 566.906 239.47 565.646 239.71C564.386 239.95 563.246 240.34 562.226 240.88C561.266 241.36 560.486 242.02 559.886 242.86C559.346 243.7 559.076 244.72 559.076 245.92C559.076 247.12 559.406 248.17 560.066 249.07C560.726 249.91 561.686 250.66 562.946 251.32C564.266 251.92 565.796 252.49 567.536 253.03C569.336 253.63 571.226 254.11 573.206 254.47C575.186 254.83 577.076 255.31 578.876 255.91C581.156 256.51 583.286 257.23 585.266 258.07C587.246 258.85 588.986 259.87 590.486 261.13C591.986 262.33 593.156 263.89 593.996 265.81C594.836 267.67 595.256 269.98 595.256 272.74C595.256 276.4 594.566 279.52 593.186 282.1C591.866 284.62 590.036 286.66 587.696 288.22C585.416 289.78 582.806 290.92 579.866 291.64C576.926 292.36 573.896 292.72 570.776 292.72ZM606.16 292V228.28H652.06V240.25H619.03V254.65H647.38V266.17H619.03V280.12H652.06V292H606.16ZM662.059 292V228.28H687.709C690.889 228.28 693.919 228.61 696.799 229.27C699.739 229.87 702.379 230.92 704.719 232.42C707.059 233.92 708.889 236.02 710.209 238.72C711.589 241.36 712.279 244.75 712.279 248.89C712.279 251.95 711.769 254.71 710.749 257.17C709.729 259.63 708.229 261.73 706.249 263.47C704.269 265.21 701.899 266.56 699.139 267.52L713.269 292H698.779L686.359 269.59H674.929V292H662.059ZM674.929 258.16H686.809C688.669 258.16 690.349 258.01 691.849 257.71C693.409 257.35 694.729 256.81 695.809 256.09C696.949 255.37 697.819 254.41 698.419 253.21C699.079 252.01 699.409 250.54 699.409 248.8C699.469 246.58 698.989 244.87 697.969 243.67C697.009 242.41 695.629 241.54 693.829 241.06C692.089 240.52 690.019 240.25 687.619 240.25H674.929V258.16ZM741.119 292L717.899 228.28H731.939L749.759 281.11L767.219 228.28H781.169L758.039 292H741.119ZM788.445 292V228.28H801.315V292H788.445ZM841.993 292.72C835.453 292.72 829.873 291.4 825.253 288.76C820.693 286.06 817.213 282.28 814.813 277.42C812.473 272.56 811.303 266.89 811.303 260.41C811.303 253.81 812.503 248.05 814.903 243.13C817.363 238.21 820.873 234.4 825.433 231.7C829.993 228.94 835.483 227.56 841.903 227.56C846.763 227.56 851.113 228.4 854.953 230.08C858.793 231.7 861.883 234.13 864.223 237.37C866.623 240.55 868.123 244.48 868.723 249.16H856.303C855.523 246.22 853.933 243.91 851.533 242.23C849.193 240.49 846.073 239.62 842.173 239.62C837.853 239.62 834.403 240.61 831.822 242.59C829.303 244.51 827.473 247.03 826.333 250.15C825.193 253.21 824.623 256.45 824.623 259.87C824.623 263.41 825.223 266.77 826.423 269.95C827.623 273.13 829.513 275.71 832.093 277.69C834.733 279.67 838.183 280.66 842.443 280.66C844.963 280.66 847.213 280.3 849.193 279.58C851.173 278.8 852.793 277.69 854.053 276.25C855.373 274.81 856.273 273.1 856.753 271.12H869.623C869.083 275.74 867.523 279.67 864.943 282.91C862.363 286.15 859.093 288.61 855.133 290.29C851.173 291.91 846.793 292.72 841.993 292.72ZM879.061 292V228.28H924.961V240.25H891.931V254.65H920.281V266.17H891.931V280.12H924.961V292H879.061Z" fill="white"/>
<path d="M544.996 194V52.4H601.996C609.063 52.4 615.796 53.1333 622.196 54.6C628.729 55.9333 634.596 58.2667 639.796 61.6C644.996 64.9333 649.063 69.6 651.996 75.6C655.063 81.4667 656.596 89 656.596 98.2C656.596 105 655.463 111.133 653.196 116.6C650.929 122.067 647.596 126.733 643.196 130.6C638.796 134.467 633.529 137.467 627.396 139.6L658.796 194H626.596L598.996 144.2H573.596V194H544.996ZM573.596 118.8H599.996C604.129 118.8 607.863 118.467 611.196 117.8C614.663 117 617.596 115.8 619.996 114.2C622.529 112.6 624.463 110.467 625.796 107.8C627.263 105.133 627.996 101.867 627.996 98C628.129 93.0667 627.063 89.2667 624.796 86.6C622.663 83.8 619.596 81.8667 615.596 80.8C611.729 79.6 607.129 79 601.796 79H573.596V118.8ZM682.887 194V52.4H784.887V79H711.487V111H774.487V136.6H711.487V167.6H784.887V194H682.887ZM807.105 194V52.4H907.905V79H835.705V115.6H896.705V142H835.705V194H807.105Z" fill="white"/>
<path d="M519.999 171C519.999 188.604 516.551 205.418 509.654 221.443C502.757 237.467 493.486 251.291 481.84 262.914C470.194 274.537 456.344 283.791 440.289 290.674C424.234 297.558 407.387 301 389.75 301C370.303 301 351.817 296.909 334.292 288.728C316.767 280.546 301.842 269.008 289.518 254.112C288.727 252.983 288.36 251.714 288.416 250.303C288.473 248.893 288.953 247.736 289.858 246.833L313.092 223.474C314.223 222.458 315.636 221.95 317.332 221.95C319.141 222.176 320.441 222.853 321.233 223.982C329.486 234.702 339.606 242.997 351.59 248.865C363.575 254.733 376.295 257.667 389.75 257.667C401.508 257.667 412.73 255.381 423.414 250.811C434.099 246.241 443.342 240.062 451.143 232.276C458.945 224.49 465.135 215.264 469.714 204.6C474.293 193.936 476.583 182.736 476.583 171C476.583 159.264 474.293 148.064 469.714 137.4C465.135 126.736 458.945 117.51 451.143 109.724C443.342 101.937 434.099 95.7591 423.414 91.1888C412.73 86.6185 401.508 84.3333 389.75 84.3333C378.669 84.3333 368.041 86.3364 357.866 90.3424C347.69 94.3485 338.645 100.076 330.73 107.523L353.965 130.883C357.47 134.268 358.261 138.161 356.339 142.562C354.417 147.076 351.082 149.333 346.333 149.333H270.354C267.414 149.333 264.871 148.261 262.722 146.117C260.574 143.973 259.5 141.434 259.5 138.5V62.6667C259.5 57.9271 261.761 54.5981 266.284 52.6797C270.693 50.7613 274.594 51.5512 277.986 55.0495L300.033 76.8854C312.131 65.4878 325.953 56.6576 341.5 50.3945C357.046 44.1315 373.129 41 389.75 41C407.387 41 424.234 44.4418 440.289 51.3255C456.344 58.2092 470.194 67.4627 481.84 79.0859C493.486 90.7092 502.757 104.533 509.654 120.557C516.551 136.582 519.999 153.396 519.999 171Z" fill="#0C78ED"/>
<path d="M-0.000972805 171C-0.000971263 153.396 3.43426 136.582 10.3047 120.557C17.1752 104.533 26.4109 90.7092 38.0119 79.086C49.6128 67.4627 63.4101 58.2092 79.4036 51.3256C95.3972 44.4419 112.179 41 129.75 41C149.122 41 167.537 45.0908 184.995 53.2722C202.453 61.4536 217.32 72.9922 229.597 87.8881C230.385 89.0165 230.751 90.2861 230.695 91.6967C230.638 93.1072 230.16 94.2639 229.259 95.1667L206.113 118.526C204.987 119.542 203.579 120.05 201.889 120.05C200.087 119.824 198.792 119.147 198.004 118.018C189.782 107.298 179.701 99.0035 167.762 93.1355C155.824 87.2674 143.153 84.3334 129.75 84.3334C118.036 84.3334 106.857 86.6185 96.2138 91.1888C85.5702 95.7591 76.3626 101.938 68.5911 109.724C60.8196 117.51 54.653 126.736 50.0915 137.4C45.53 148.064 43.2492 159.264 43.2492 171C43.2492 182.736 45.53 193.936 50.0915 204.6C54.653 215.264 60.8196 224.49 68.5911 232.276C76.3626 240.062 85.5701 246.241 96.2137 250.811C106.857 255.382 118.036 257.667 129.75 257.667C140.787 257.667 151.375 255.664 161.511 251.658C171.648 247.651 180.659 241.924 188.543 234.477L165.397 211.117C161.906 207.732 161.117 203.839 163.032 199.438C164.947 194.924 168.269 192.667 173 192.667L248.687 192.667C251.616 192.667 254.15 193.739 256.29 195.883C258.43 198.027 259.5 200.566 259.5 203.5L259.5 279.333C259.5 284.073 257.247 287.402 252.742 289.32C248.35 291.239 244.464 290.449 241.085 286.951L219.122 265.115C207.07 276.512 193.301 285.342 177.815 291.605C162.328 297.868 146.306 301 129.75 301C112.179 301 95.3972 297.558 79.4036 290.674C63.4101 283.791 49.6128 274.537 38.0119 262.914C26.4109 251.291 17.1752 237.467 10.3047 221.443C3.43426 205.418 -0.000974347 188.604 -0.000972805 171Z" fill="#DF0000"/>
</svg>
