<svg width="800" height="320" viewBox="0 0 800 320" fill="none" xmlns="http://www.w3.org/2000/svg">
<path d="M428.776 292.72C424.336 292.72 420.196 292.03 416.356 290.65C412.576 289.27 409.396 287.08 406.816 284.08C404.296 281.08 402.706 277.21 402.046 272.47H415.186C415.726 274.51 416.716 276.16 418.156 277.42C419.596 278.62 421.306 279.49 423.286 280.03C425.326 280.57 427.456 280.84 429.676 280.84C431.356 280.84 433.006 280.63 434.626 280.21C436.246 279.79 437.566 279.07 438.586 278.05C439.666 277.03 440.206 275.65 440.206 273.91C440.206 272.59 439.906 271.51 439.306 270.67C438.766 269.83 437.956 269.17 436.876 268.69C435.856 268.15 434.596 267.67 433.096 267.25C431.836 266.89 430.516 266.59 429.136 266.35C427.816 266.11 426.496 265.81 425.176 265.45C423.916 265.09 422.686 264.67 421.486 264.19C419.206 263.59 417.016 262.87 414.916 262.03C412.816 261.13 410.956 260.02 409.336 258.7C407.716 257.32 406.426 255.61 405.466 253.57C404.566 251.53 404.116 249.07 404.116 246.19C404.116 243.07 404.626 240.43 405.646 238.27C406.726 236.11 408.136 234.34 409.876 232.96C411.676 231.52 413.656 230.41 415.816 229.63C418.036 228.85 420.256 228.31 422.476 228.01C424.696 227.71 426.796 227.56 428.776 227.56C432.916 227.56 436.636 228.28 439.936 229.72C443.236 231.16 445.936 233.32 448.036 236.2C450.136 239.08 451.336 242.71 451.636 247.09H439.126C438.886 245.29 438.226 243.82 437.146 242.68C436.066 241.54 434.686 240.7 433.006 240.16C431.386 239.62 429.556 239.35 427.516 239.35C426.196 239.35 424.906 239.47 423.646 239.71C422.386 239.95 421.246 240.34 420.226 240.88C419.266 241.36 418.486 242.02 417.886 242.86C417.346 243.7 417.076 244.72 417.076 245.92C417.076 247.12 417.406 248.17 418.066 249.07C418.726 249.91 419.686 250.66 420.946 251.32C422.266 251.92 423.796 252.49 425.536 253.03C427.336 253.63 429.226 254.11 431.206 254.47C433.186 254.83 435.076 255.31 436.876 255.91C439.156 256.51 441.286 257.23 443.266 258.07C445.246 258.85 446.986 259.87 448.486 261.13C449.986 262.33 451.156 263.89 451.996 265.81C452.836 267.67 453.256 269.98 453.256 272.74C453.256 276.4 452.566 279.52 451.186 282.1C449.866 284.62 448.036 286.66 445.696 288.22C443.416 289.78 440.806 290.92 437.866 291.64C434.926 292.36 431.896 292.72 428.776 292.72ZM464.16 292V228.28H510.06V240.25H477.03V254.65H505.38V266.17H477.03V280.12H510.06V292H464.16ZM520.059 292V228.28H545.709C548.889 228.28 551.919 228.61 554.799 229.27C557.739 229.87 560.379 230.92 562.719 232.42C565.059 233.92 566.889 236.02 568.209 238.72C569.589 241.36 570.279 244.75 570.279 248.89C570.279 251.95 569.769 254.71 568.749 257.17C567.729 259.63 566.229 261.73 564.249 263.47C562.269 265.21 559.899 266.56 557.139 267.52L571.269 292H556.779L544.359 269.59H532.929V292H520.059ZM532.929 258.16H544.809C546.669 258.16 548.349 258.01 549.849 257.71C551.409 257.35 552.729 256.81 553.809 256.09C554.949 255.37 555.819 254.41 556.419 253.21C557.079 252.01 557.409 250.54 557.409 248.8C557.469 246.58 556.989 244.87 555.969 243.67C555.009 242.41 553.629 241.54 551.829 241.06C550.089 240.52 548.019 240.25 545.619 240.25H532.929V258.16ZM599.119 292L575.899 228.28H589.939L607.759 281.11L625.219 228.28H639.169L616.039 292H599.119ZM646.445 292V228.28H659.315V292H646.445ZM699.993 292.72C693.453 292.72 687.873 291.4 683.253 288.76C678.693 286.06 675.213 282.28 672.813 277.42C670.473 272.56 669.303 266.89 669.303 260.41C669.303 253.81 670.503 248.05 672.903 243.13C675.363 238.21 678.873 234.4 683.433 231.7C687.993 228.94 693.483 227.56 699.903 227.56C704.763 227.56 709.113 228.4 712.953 230.08C716.793 231.7 719.883 234.13 722.223 237.37C724.623 240.55 726.123 244.48 726.723 249.16H714.303C713.523 246.22 711.933 243.91 709.533 242.23C707.193 240.49 704.073 239.62 700.173 239.62C695.853 239.62 692.403 240.61 689.822 242.59C687.303 244.51 685.473 247.03 684.333 250.15C683.193 253.21 682.623 256.45 682.623 259.87C682.623 263.41 683.223 266.77 684.423 269.95C685.623 273.13 687.513 275.71 690.093 277.69C692.733 279.67 696.183 280.66 700.443 280.66C702.963 280.66 705.213 280.3 707.193 279.58C709.173 278.8 710.793 277.69 712.053 276.25C713.373 274.81 714.273 273.1 714.753 271.12H727.623C727.083 275.74 725.523 279.67 722.943 282.91C720.363 286.15 717.093 288.61 713.133 290.29C709.173 291.91 704.793 292.72 699.993 292.72ZM737.061 292V228.28H782.961V240.25H749.931V254.65H778.281V266.17H749.931V280.12H782.961V292H737.061Z" fill="#0C78ED"/>
<path d="M402.996 194V52.4H459.996C467.063 52.4 473.796 53.1333 480.196 54.6C486.729 55.9333 492.596 58.2667 497.796 61.6C502.996 64.9333 507.063 69.6 509.996 75.6C513.063 81.4667 514.596 89 514.596 98.2C514.596 105 513.463 111.133 511.196 116.6C508.929 122.067 505.596 126.733 501.196 130.6C496.796 134.467 491.529 137.467 485.396 139.6L516.796 194H484.596L456.996 144.2H431.596V194H402.996ZM431.596 118.8H457.996C462.129 118.8 465.863 118.467 469.196 117.8C472.663 117 475.596 115.8 477.996 114.2C480.529 112.6 482.463 110.467 483.796 107.8C485.263 105.133 485.996 101.867 485.996 98C486.129 93.0667 485.063 89.2667 482.796 86.6C480.663 83.8 477.596 81.8667 473.596 80.8C469.729 79.6 465.129 79 459.796 79H431.596V118.8ZM548.887 194V52.4H650.887V79H577.487V111H640.487V136.6H577.487V167.6H650.887V194H548.887ZM681.105 194V52.4H781.905V79H709.705V115.6H770.705V142H709.705V194H681.105Z" fill="#DF0000"/>
<path d="M265.257 230.066C294.708 230.066 318.111 205.377 318.111 174.921C318.111 144.466 294.237 119.778 264.787 119.778C258.716 120.223 255.665 120.974 250.98 123.581L279.546 156.857H131L249.075 38.0127L246.219 62.7323C252.165 60.4756 256.356 59.7277 264.296 58.9308C328.241 59.1801 380 110.59 380 173.971C380 237.507 327.989 289.013 263.829 289.013C241.983 287.871 229.163 284.752 205.268 274.751L252.879 229.115C257.051 229.885 259.986 230.137 265.257 230.066Z" fill="#DF0000"/>
<path d="M114.743 113.96C85.2923 113.96 61.8887 138.649 61.8887 169.104C61.8887 199.559 85.7628 224.248 115.213 224.248C121.284 223.803 124.335 223.051 129.02 220.445L100.454 187.168H249L130.925 306.013L133.781 281.293C127.835 283.55 123.644 284.298 115.704 285.095C51.7592 284.845 0 233.435 0 170.054C0 106.518 52.0115 55.0127 116.171 55.0127C138.017 56.1543 150.837 59.2737 174.732 69.274L127.121 114.91C122.949 114.14 120.014 113.889 114.743 113.96Z" fill="#0C78ED"/>
</svg>
